<?xml version="1.0" standalone="no"?>
<!DOCTYPE svg PUBLIC "-//W3C//DTD SVG 20010904//EN"
 "http://www.w3.org/TR/2001/REC-SVG-20010904/DTD/svg10.dtd">
<svg version="1.0" xmlns="http://www.w3.org/2000/svg"
 width="1968.000000pt" height="1968.000000pt" viewBox="0 0 1968.000000 1968.000000"
 preserveAspectRatio="xMidYMid meet">
<metadata>
Created by potrace 1.14, written by Peter Selinger 2001-2017
</metadata>
<g transform="translate(0.000000,1968.000000) scale(0.100000,-0.100000)"
fill="#000000" stroke="none">
<path d="M460 12290 c-98 -18 -199 -98 -253 -200 -31 -59 -39 -79 -53 -145 -3
-14 -7 -4286 -4 -4473 l0 -22 387 2 387 3 0 1408 c0 774 3 1407 7 1407 3 0 41
-69 84 -152 85 -167 262 -514 445 -873 65 -126 153 -300 196 -385 44 -85 82
-156 87 -158 4 -2 7 -11 7 -21 0 -9 4 -21 9 -26 5 -6 81 -152 169 -325 305
-600 383 -752 406 -789 23 -36 126 -131 126 -116 0 4 6 3 13 -3 26 -22 114
-39 182 -36 55 3 85 11 140 38 123 61 85 -3 607 1026 116 228 259 510 317 625
58 116 108 212 111 215 3 3 68 130 145 284 77 153 191 378 252 500 l113 221 1
-1395 c1 -767 0 -1407 -1 -1422 l-2 -28 386 0 c283 0 387 3 392 12 9 15 10
2231 0 2246 -4 7 -4 12 1 12 4 0 8 54 8 119 0 66 -3 117 -7 115 -4 -3 -5 2 -2
11 10 24 10 216 1 222 -4 2 -4 9 -1 15 9 15 9 212 0 227 -4 6 -4 11 1 11 10 0
8 213 -1 229 -4 6 -4 11 1 11 4 0 8 54 8 119 0 68 -4 117 -9 114 -5 -4 -6 0
-1 6 9 16 10 214 1 230 -4 6 -4 11 1 11 4 0 8 54 8 119 0 66 -3 117 -7 115 -4
-3 -5 2 -2 11 9 23 10 234 2 229 -4 -3 -5 2 -2 11 8 19 11 225 4 225 -3 0 -4
17 -4 37 1 21 -5 58 -13 83 -8 25 -15 51 -15 58 -1 6 -4 12 -7 12 -3 0 -13 15
-20 33 -8 17 -27 46 -43 62 -15 17 -28 33 -28 36 0 12 -106 76 -151 91 -28 10
-74 15 -121 14 -140 -4 -258 -85 -334 -229 -21 -40 -76 -147 -123 -239 -47
-92 -129 -252 -183 -355 -53 -103 -123 -240 -155 -303 -32 -63 -63 -122 -68
-130 -5 -8 -10 -21 -11 -28 -1 -7 -7 -18 -12 -25 -9 -10 -88 -162 -194 -372
-11 -22 -24 -47 -28 -55 -17 -32 -246 -476 -412 -800 -248 -482 -296 -575
-355 -690 -36 -69 -70 -134 -76 -145 -6 -11 -12 -22 -12 -25 -1 -3 -12 -25
-25 -50 -13 -25 -40 -78 -61 -118 -20 -41 -39 -70 -42 -65 -6 10 -201 388
-430 833 -52 102 -134 262 -182 355 -174 338 -259 502 -324 630 -36 72 -69
132 -73 133 -5 2 -8 11 -8 21 0 9 -4 21 -9 27 -4 5 -35 61 -67 124 -33 63 -63
118 -69 122 -5 4 -6 8 -2 8 5 0 -5 24 -21 53 -16 28 -74 138 -127 242 -54 105
-140 273 -193 375 -52 102 -133 259 -179 350 -89 173 -117 217 -167 263 -32
29 -116 74 -156 83 -40 9 -122 11 -160 4z"/>
<path d="M17008 12288 c-15 -5 -38 -26 -50 -46 l-23 -37 0 -667 c0 -449 3
-669 10 -671 5 -2 57 -3 115 -3 l105 1 0 583 c0 575 0 583 20 587 11 2 188 3
393 3 278 -1 376 -4 389 -13 14 -11 17 -31 16 -126 -1 -177 -15 -215 -94 -269
l-52 -35 -281 -2 c-154 0 -284 -2 -288 -2 -5 -1 -8 -59 -8 -129 l0 -128 86 -1
85 -1 43 -44 c24 -23 132 -128 240 -233 l197 -190 180 0 180 -1 -143 138 c-79
76 -187 181 -241 233 -54 52 -95 95 -90 96 181 16 325 124 386 289 25 68 31
120 30 285 -1 163 -10 205 -61 280 -33 49 -44 59 -105 88 l-48 24 -482 0
c-279 0 -493 -3 -509 -9z"/>
<path d="M18455 12289 c-3 -4 -5 -306 -5 -669 0 -708 -1 -689 50 -735 22 -19
36 -20 574 -20 l551 0 0 128 c0 80 -3 127 -10 128 -5 1 -217 2 -470 3 l-460 1
0 583 c0 509 -2 583 -15 586 -28 8 -210 4 -215 -5z"/>
<path d="M10695 11668 c0 -310 -1 -574 -3 -588 l-4 -25 -499 0 c-325 0 -499
-3 -500 -10 -4 -39 -3 -838 1 -848 4 -9 123 -12 505 -12 l499 0 0 -1367 0
-1368 391 0 391 0 0 1348 c-1 741 1 1356 2 1368 l4 21 656 1 c362 0 665 1 675
1 16 1 17 29 17 434 l0 432 -677 0 -677 0 0 588 0 587 -391 0 -391 0 1 -562z"/>
<path d="M6846 11053 c-1 -1 -31 -4 -66 -7 -36 -3 -65 -5 -65 -6 0 -1 -13 -4
-30 -6 -135 -22 -346 -132 -460 -242 -49 -47 -105 -112 -105 -121 0 -6 -4 -11
-9 -11 -22 0 -165 -264 -186 -345 -5 -16 -9 -32 -10 -35 -22 -74 -43 -174 -60
-285 -7 -46 -7 -1449 0 -1510 4 -36 8 -64 21 -146 20 -128 98 -310 192 -443
65 -94 214 -246 241 -246 5 0 14 -7 21 -15 29 -35 248 -134 330 -149 14 -2 32
-7 40 -10 8 -3 31 -8 50 -12 54 -12 1552 -17 1559 -5 5 7 6 780 2 812 -1 3
-322 6 -713 6 -392 1 -713 2 -713 3 0 1 -17 4 -38 6 -80 10 -180 83 -221 163
-40 76 -42 122 -41 826 0 405 4 686 10 695 5 8 11 24 12 35 5 28 52 106 86
139 16 17 50 41 76 55 l46 26 795 0 795 0 51 -27 c123 -65 187 -181 186 -338
0 -25 -2 -58 -6 -75 -3 -16 -8 -40 -10 -53 -16 -79 -97 -179 -176 -216 -44
-21 -57 -21 -670 -24 -344 -1 -679 -3 -745 -5 l-120 -2 0 -407 c0 -268 3 -408
10 -409 28 -2 1391 -1 1459 1 67 3 119 11 226 35 60 13 217 86 255 117 6 5 21
17 34 28 13 11 28 20 32 20 4 0 45 37 91 83 169 165 296 416 334 662 1 11 7
49 12 85 9 59 8 354 -1 390 -2 8 -7 33 -11 55 -19 106 -66 239 -123 345 -25
47 -48 87 -52 90 -3 3 -18 23 -33 45 -53 78 -228 245 -255 245 -6 0 -13 4 -15
9 -6 17 -199 111 -238 116 -3 0 -10 4 -16 8 -13 8 -140 36 -199 44 -37 5
-1574 11 -1579 6z"/>
<path d="M13720 11050 c-5 -3 -8 -189 -9 -413 l0 -407 880 -1 c483 -1 882 -2
887 -4 4 -1 21 -5 37 -10 107 -30 203 -147 221 -271 9 -58 10 -1335 1 -1379
-29 -153 -117 -251 -257 -282 -38 -8 -1468 -7 -1524 1 -122 19 -235 128 -261
251 -31 149 11 307 105 396 91 86 54 83 880 85 399 1 727 2 730 3 7 2 5 810
-2 817 -5 5 -34 6 -128 4 -8 0 -61 1 -118 2 -56 2 -102 0 -102 -3 0 -4 -18 -3
-39 1 -22 4 -45 4 -52 -1 -7 -4 -18 -5 -26 -2 -23 9 -203 9 -203 0 0 -5 -5 -5
-10 -2 -6 4 -140 6 -298 6 -158 -1 -296 -1 -307 -1 -206 5 -365 -15 -475 -58
-48 -19 -145 -65 -150 -71 -3 -3 -32 -24 -65 -46 -121 -81 -246 -225 -328
-375 -38 -70 -102 -237 -110 -285 -3 -16 -10 -52 -16 -79 -21 -88 -23 -109
-26 -281 -4 -241 29 -414 112 -580 171 -343 450 -548 821 -604 83 -13 1662
-10 1722 3 171 36 284 87 414 185 229 173 375 432 436 768 15 84 27 279 19
319 -1 5 -1 12 0 17 3 8 3 103 1 115 -1 4 -1 34 0 67 1 33 1 69 0 80 -1 11 -1
27 -1 35 0 14 0 201 0 225 0 6 0 39 0 75 0 36 0 76 0 90 0 14 0 78 1 142 1 65
-2 122 -5 128 -3 5 -3 10 2 10 4 0 7 24 6 52 -1 29 -2 53 -3 53 0 0 -2 52 -4
115 -4 110 -10 165 -22 220 -3 14 -8 36 -10 50 -18 100 -107 290 -191 408
-108 152 -293 298 -453 357 -25 9 -54 21 -65 25 -25 11 -157 40 -210 47 -53 7
-1794 10 -1805 3z"/>
</g>
</svg>
